HIERARCHY
ROOT Root
{
  OFFSET 0.0 0.0 0.0
  CHANNELS 6 Xposition Yposition Zposition Zrotation Yrotation Xrotation
  JOINT Hips
  {
    OFFSET 0.0 100.0 0.0
    CHANNELS 6 Xposition Yposition Zposition Zrotation Yrotation Xrotation
    JOINT Spine1
    {
      OFFSET 5.003913 -0.037094 -0.013727
      CHANNELS 3 Zrotation Yrotation Xrotation
      JOINT Spine2
      {
        OFFSET 7.125363 -1e-06 0.0
        CHANNELS 3 Zrotation Yrotation Xrotation
        JOINT Chest
        {
          OFFSET 7.594027 1e-06 0.0
          CHANNELS 3 Zrotation Yrotation Xrotation
          JOINT Neck1
          {
            OFFSET 26.313086 -0.460272 -0.181672
            CHANNELS 3 Zrotation Yrotation Xrotation
            JOINT Neck2
            {
              OFFSET 8.045911 0.0 0.0
              CHANNELS 3 Zrotation Yrotation Xrotation
              JOINT Head
              {
                OFFSET 6.432774 0.0 0.0
                CHANNELS 3 Zrotation Yrotation Xrotation
                JOINT HeadEnd
                {
                  OFFSET 16.169773 0.06451 0.00362
                  CHANNELS 3 Zrotation Yrotation Xrotation
                }
                JOINT Jaw
                {
                  OFFSET 0.108741 3.12938 0.002639
                  CHANNELS 3 Zrotation Yrotation Xrotation
                }
                JOINT LeftEye
                {
                  OFFSET 4.45173 8.166359 3.206392
                  CHANNELS 3 Zrotation Yrotation Xrotation
                }
                JOINT RightEye
                {
                  OFFSET 4.436895 8.135758 -3.222429
                  CHANNELS 3 Zrotation Yrotation Xrotation
                }
              }
            }
          }
          JOINT LeftShoulder
          {
            OFFSET 23.218927 5.195579 1.621656
            CHANNELS 3 Zrotation Yrotation Xrotation
            JOINT LeftArm
            {
              OFFSET 15.902118 2e-06 -2e-06
              CHANNELS 3 Zrotation Yrotation Xrotation
              JOINT LeftForeArm
              {
                OFFSET 28.739307 0.0 -1e-06
                CHANNELS 3 Zrotation Yrotation Xrotation
                JOINT LeftHand
                {
                  OFFSET 27.093981 -4e-06 0.0
                  CHANNELS 3 Zrotation Yrotation Xrotation
                  JOINT LeftHandThumb1
                  {
                    OFFSET 2.276781 3.380274 0.83384
                    CHANNELS 3 Zrotation Yrotation Xrotation
                    JOINT LeftHandThumb2
                    {
                      OFFSET 4.705309 -1e-06 -1e-06
                      CHANNELS 3 Zrotation Yrotation Xrotation
                      JOINT LeftHandThumb3
                      {
                        OFFSET 2.798515 0.0 3e-06
                        CHANNELS 3 Zrotation Yrotation Xrotation
                        JOINT LeftHandThumbEnd
                        {
                          OFFSET 3.180793 4e-06 -4e-06
                          CHANNELS 3 Zrotation Yrotation Xrotation
                        }
                      }
                    }
                  }
                  JOINT LeftHandIndex1
                  {
                    OFFSET 3.247786 2.352677 0.137192
                    CHANNELS 3 Zrotation Yrotation Xrotation
                    JOINT LeftHandIndex2
                    {
                      OFFSET 6.367095 1e-06 0.0
                      CHANNELS 3 Zrotation Yrotation Xrotation
                      JOINT LeftHandIndex3
                      {
                        OFFSET 3.662364 0.0 0.0
                        CHANNELS 3 Zrotation Yrotation Xrotation
                        JOINT LeftHandIndex4
                        {
                          OFFSET 2.329242 4e-06 -4e-06
                          CHANNELS 3 Zrotation Yrotation Xrotation
                          JOINT LeftHandIndexEnd
                          {
                            OFFSET 2.767823 1e-06 0.0
                            CHANNELS 3 Zrotation Yrotation Xrotation
                          }
                        }
                      }
                    }
                  }
                  JOINT LeftHandMiddle1
                  {
                    OFFSET 3.163612 0.945023 -0.406112
                    CHANNELS 3 Zrotation Yrotation Xrotation
                    JOINT LeftHandMiddle2
                    {
                      OFFSET 6.276789 3e-06 0.0
                      CHANNELS 3 Zrotation Yrotation Xrotation
                      JOINT LeftHandMiddle3
                      {
                        OFFSET 4.35652 -1e-06 4e-06
                        CHANNELS 3 Zrotation Yrotation Xrotation
                        JOINT LeftHandMiddle4
                        {
                          OFFSET 2.996877 0.0 8e-06
                          CHANNELS 3 Zrotation Yrotation Xrotation
                          JOINT LeftHandMiddleEnd
                          {
                            OFFSET 2.323256 3e-06 -4e-06
                            CHANNELS 3 Zrotation Yrotation Xrotation
                          }
                        }
                      }
                    }
                  }
                  JOINT LeftHandRing1
                  {
                    OFFSET 2.882606 -0.309162 0.107445
                    CHANNELS 3 Zrotation Yrotation Xrotation
                    JOINT LeftHandRing2
                    {
                      OFFSET 6.033198 0.0 4e-06
                      CHANNELS 3 Zrotation Yrotation Xrotation
                      JOINT LeftHandRing3
                      {
                        OFFSET 4.350578 3e-06 0.0
                        CHANNELS 3 Zrotation Yrotation Xrotation
                        JOINT LeftHandRing4
                        {
                          OFFSET 2.651321 2e-06 -7e-06
                          CHANNELS 3 Zrotation Yrotation Xrotation
                          JOINT LeftHandRingEnd
                          {
                            OFFSET 1.937663 1e-06 -4e-06
                            CHANNELS 3 Zrotation Yrotation Xrotation
                          }
                        }
                      }
                    }
                  }
                  JOINT LeftHandPinky1
                  {
                    OFFSET 2.865315 -1.525436 0.575687
                    CHANNELS 3 Zrotation Yrotation Xrotation
                    JOINT LeftHandPinky2
                    {
                      OFFSET 5.54936 1e-06 -8e-06
                      CHANNELS 3 Zrotation Yrotation Xrotation
                      JOINT LeftHandPinky3
                      {
                        OFFSET 3.070974 0.0 -4e-06
                        CHANNELS 3 Zrotation Yrotation Xrotation
                        JOINT LeftHandPinky4
                        {
                          OFFSET 1.549672 1e-06 0.0
                          CHANNELS 3 Zrotation Yrotation Xrotation
                          JOINT LeftHandPinkyEnd
                          {
                            OFFSET 1.952123 0.0 0.0
                            CHANNELS 3 Zrotation Yrotation Xrotation
                          }
                        }
                      }
                    }
                  }
                }
              }
            }
          }
          JOINT RightShoulder
          {
            OFFSET 23.161716 5.296122 -1.380114
            CHANNELS 3 Zrotation Yrotation Xrotation
            JOINT RightArm
            {
              OFFSET -16.027195 -2e-06 1.1e-05
              CHANNELS 3 Zrotation Yrotation Xrotation
              JOINT RightForeArm
              {
                OFFSET -28.736639 4e-06 2e-06
                CHANNELS 3 Zrotation Yrotation Xrotation
                JOINT RightHand
                {
                  OFFSET -27.133619 6e-06 0.0
                  CHANNELS 3 Zrotation Yrotation Xrotation
                  JOINT RightHandThumb1
                  {
                    OFFSET -2.274328 -3.351035 -0.83067
                    CHANNELS 3 Zrotation Yrotation Xrotation
                    JOINT RightHandThumb2
                    {
                      OFFSET -4.703594 -3e-06 2e-06
                      CHANNELS 3 Zrotation Yrotation Xrotation
                      JOINT RightHandThumb3
                      {
                        OFFSET -2.794935 -4e-06 -3e-06
                        CHANNELS 3 Zrotation Yrotation Xrotation
                        JOINT RightHandThumbEnd
                        {
                          OFFSET -3.183852 4e-06 1e-06
                          CHANNELS 3 Zrotation Yrotation Xrotation
                        }
                      }
                    }
                  }
                  JOINT RightHandIndex1
                  {
                    OFFSET -3.253496 -2.33755 -0.127667
                    CHANNELS 3 Zrotation Yrotation Xrotation
                    JOINT RightHandIndex2
                    {
                      OFFSET -6.344434 0.0 0.0
                      CHANNELS 3 Zrotation Yrotation Xrotation
                      JOINT RightHandIndex3
                      {
                        OFFSET -3.654871 0.0 -8e-06
                        CHANNELS 3 Zrotation Yrotation Xrotation
                        JOINT RightHandIndex4
                        {
                          OFFSET -2.327586 -1e-06 0.0
                          CHANNELS 3 Zrotation Yrotation Xrotation
                          JOINT RightHandIndexEnd
                          {
                            OFFSET -2.770001 3e-06 8e-06
                            CHANNELS 3 Zrotation Yrotation Xrotation
                          }
                        }
                      }
                    }
                  }
                  JOINT RightHandMiddle1
                  {
                    OFFSET -3.168223 -0.944764 0.411762
                    CHANNELS 3 Zrotation Yrotation Xrotation
                    JOINT RightHandMiddle2
                    {
                      OFFSET -6.266691 -1e-06 -4e-06
                      CHANNELS 3 Zrotation Yrotation Xrotation
                      JOINT RightHandMiddle3
                      {
                        OFFSET -4.348901 0.0 0.0
                        CHANNELS 3 Zrotation Yrotation Xrotation
                        JOINT RightHandMiddle4
                        {
                          OFFSET -3.00024 2e-06 -4e-06
                          CHANNELS 3 Zrotation Yrotation Xrotation
                          JOINT RightHandMiddleEnd
                          {
                            OFFSET -2.321477 -4e-06 -4e-06
                            CHANNELS 3 Zrotation Yrotation Xrotation
                          }
                        }
                      }
                    }
                  }
                  JOINT RightHandRing1
                  {
                    OFFSET -2.885654 0.293261 -0.119232
                    CHANNELS 3 Zrotation Yrotation Xrotation
                    JOINT RightHandRing2
                    {
                      OFFSET -6.032835 -1e-06 -4e-06
                      CHANNELS 3 Zrotation Yrotation Xrotation
                      JOINT RightHandRing3
                      {
                        OFFSET -4.33881 0.0 -4e-06
                        CHANNELS 3 Zrotation Yrotation Xrotation
                        JOINT RightHandRing4
                        {
                          OFFSET -2.654903 -4e-06 -4e-06
                          CHANNELS 3 Zrotation Yrotation Xrotation
                          JOINT RightHandRingEnd
                          {
                            OFFSET -1.935122 0.0 4e-06
                            CHANNELS 3 Zrotation Yrotation Xrotation
                          }
                        }
                      }
                    }
                  }
                  JOINT RightHandPinky1
                  {
                    OFFSET -2.866241 1.503904 -0.60527
                    CHANNELS 3 Zrotation Yrotation Xrotation
                    JOINT RightHandPinky2
                    {
                      OFFSET -5.553177 -2e-06 0.0
                      CHANNELS 3 Zrotation Yrotation Xrotation
                      JOINT RightHandPinky3
                      {
                        OFFSET -3.062664 -1e-06 -4e-06
                        CHANNELS 3 Zrotation Yrotation Xrotation
                        JOINT RightHandPinky4
                        {
                          OFFSET -1.546529 2e-06 4e-06
                          CHANNELS 3 Zrotation Yrotation Xrotation
                          JOINT RightHandPinkyEnd
                          {
                            OFFSET -1.952341 0.0 -4e-06
                            CHANNELS 3 Zrotation Yrotation Xrotation
                          }
                        }
                      }
                    }
                  }
                }
              }
            }
          }
        }
      }
    }
    JOINT LeftLeg
    {
      OFFSET -8.443107 2.567604 10.043214
      CHANNELS 3 Zrotation Yrotation Xrotation
      JOINT LeftShin
      {
        OFFSET 43.229198 1e-06 -1e-06
        CHANNELS 3 Zrotation Yrotation Xrotation
        JOINT LeftFoot
        {
          OFFSET 42.298611 1e-06 1e-06
          CHANNELS 3 Zrotation Yrotation Xrotation
          JOINT LeftToeBase
          {
            OFFSET 14.165858 1e-06 0.0
            CHANNELS 3 Zrotation Yrotation Xrotation
            JOINT LeftToeEnd
            {
              OFFSET 6.7141 -0.234461 0.0
              CHANNELS 3 Zrotation Yrotation Xrotation
            }
          }
        }
      }
    }
    JOINT RightLeg
    {
      OFFSET -8.303923 2.592729 -10.047278
      CHANNELS 3 Zrotation Yrotation Xrotation
      JOINT RightShin
      {
        OFFSET -43.369682 0.0 1e-06
        CHANNELS 3 Zrotation Yrotation Xrotation
        JOINT RightFoot
        {
          OFFSET -42.260784 4e-06 2e-06
          CHANNELS 3 Zrotation Yrotation Xrotation
          JOINT RightToeBase
          {
            OFFSET -14.222245 -2e-06 -1e-06
            CHANNELS 3 Zrotation Yrotation Xrotation
            JOINT RightToeEnd
            {
              OFFSET -6.660062 0.232574 -2e-06
              CHANNELS 3 Zrotation Yrotation Xrotation
            }
          }
        }
      }
    }
  }
}
MOTION
Frames: 4
Frame Time: 0.03333333333333333
0.0 0.0 0.0 0.0 -0.0 0.0 -2.583859 49.004459 3.390836 96.433731 -62.574539 85.513443 9.000437 0.398717 0.049507 -5.496796 -0.791303 0.193846 18.260141 0.287897 -1.217971 20.219267 1.601876 2.760776 -2.663517 -0.987548 0.826347 -24.94462 -2.225744 0.521397 7e-06 -0.0 -0.0 -0.174479 0.072944 0.001487 0.140627 0.172074 0.156735 0.116784 -0.027867 -0.139164 -59.295544 -71.654198 69.719643 84.147781 6.022279 -16.28647 31.291878 -1.91166 -0.405461 -39.740032 69.881302 -35.996555 17.636635 -26.322729 52.411201 -19.466656 -14.395598 29.410393 -2e-06 -8.774822 -2e-06 15.255885 -18.29763 6.774618 -0.609777 -1.795654 -3.889328 -4.80709 -11.046811 -2.937851 6e-06 -20.976015 0.0 -5.019971 -25.03356 -4.031882 6e-06 1e-06 0.0 -10.634537 -5.686973 -3.565588 10.573276 -17.922955 -3.113902 2e-06 -13.821209 1e-06 -0.501777 -31.181511 -4.027016 -11.010028 -58.350983 7.012179 -13.982716 -7.150198 -2.875042 13.772731 -8.401493 -3.218242 0.347733 -34.211555 0.771657 -0.963029 -17.733372 2.621021 -0.0 -1e-06 -0.0 -17.346422 -20.095219 -4.201784 21.757557 -1.638377 3.866429 2e-06 -6.338822 1e-06 -1.697589 -22.591751 -6.194007 -1e-06 -5e-06 -3e-06 144.907333 -76.964737 42.743195 71.069672 10.418103 -41.591335 37.298409 -2.621918 -1.051649 -22.793135 56.428932 -7.314074 22.182114 -20.375895 49.933327 -16.701811 -16.74353 28.47653 -3e-06 -12.690601 -0.0 17.070103 -17.858805 2.063445 -0.105919 -1.513855 -4.27588 -5.039044 -5.61287 -2.953556 4e-06 -11.020525 0.0 -6.111296 -15.895334 -3.840472 -1e-06 -0.0 -1e-06 -10.283371 -5.680286 -4.341839 11.028297 -11.302405 -2.372632 -1.384271 -14.23858 -6.320122 -0.625436 -26.924191 -3.827603 -3.912024 -49.677612 -4.064438 -13.708526 -7.363475 -3.720939 18.141148 -14.05274 -3.242673 5e-06 -18.787271 -0.0 -0.42971 -8.456039 2.555502 -1e-06 -1e-06 -1e-06 -15.923539 -20.094482 -5.473585 30.41921 -7.190827 1.735927 4e-06 -8.162927 1e-06 -1.861902 -22.861471 -6.167941 -0.0 -1e-06 -1e-06 122.3815 -19.773458 7.248729 104.549362 -3.04518 0.586049 -75.678787 24.173813 -15.793535 -33.36916 1.917515 1.759296 -0.999998 -0.0 0.0 -65.854507 -9.236269 -2.890935 113.064651 -0.513776 0.298639 -73.767517 10.588667 -7.343845 -38.041073 1.097956 1.252694 -1.000001 -0.0 1e-06 
0.0 0.0 0.0 0.0 -0.0 0.0 -2.876642 49.227154 4.243473 96.614998 -62.298874 85.151764 9.055403 0.368991 0.17841 -5.587576 -0.777761 0.435996 18.480467 0.05622 -0.918812 20.485655 1.309873 2.48548 -2.688104 -0.826786 0.76172 -24.739021 -2.19546 0.230996 6e-06 0.0 0.0 -0.181411 0.051579 -0.000783 0.186035 0.139619 0.161905 0.160805 -0.034218 -0.154707 -60.547081 -71.905533 71.574677 84.962189 5.646771 -16.593674 30.944538 -1.874408 -0.292141 -36.373573 70.765511 -33.202793 17.63662 -26.322725 52.411194 -19.466658 -14.395598 29.410389 -2e-06 -8.774819 -0.0 15.293468 -18.421509 6.753272 -0.609775 -1.795652 -3.889328 -4.807087 -11.046807 -2.937851 6e-06 -20.976015 -1e-06 -5.019965 -25.033552 -4.031883 6e-06 2e-06 0.0 -10.634531 -5.686969 -3.565587 10.573272 -17.922947 -3.113903 3e-06 -13.821203 1e-06 -0.501774 -31.181494 -4.027014 -10.949066 -58.645958 7.090585 -13.982714 -7.150197 -2.875042 13.772731 -8.401491 -3.218242 0.347737 -34.21154 0.771653 -0.963027 -17.733366 2.621019 -0.0 -1e-06 1e-06 -17.346415 -20.095213 -4.201783 21.757555 -1.638375 3.866428 1e-06 -6.338824 0.0 -1.697587 -22.591738 -6.194006 -1e-06 -7e-06 -3e-06 145.362976 -77.111488 42.612354 71.112999 10.725839 -41.468109 36.627422 -2.659828 -0.992185 -23.513 56.277958 -8.531687 22.182119 -20.375895 49.933323 -16.701817 -16.74353 28.476534 -2e-06 -12.690598 -0.0 16.974468 -17.747028 2.179181 -0.10592 -1.513855 -4.275881 -5.039041 -5.612872 -2.953558 6e-06 -11.020521 -0.0 -6.111293 -15.89533 -3.840472 -1e-06 -1e-06 -1e-06 -10.283369 -5.680287 -4.34184 11.028296 -11.302404 -2.372633 -1.384269 -14.238577 -6.320123 -0.625436 -26.924183 -3.827598 -3.965525 -49.835712 -3.832791 -13.708526 -7.363475 -3.720941 18.141148 -14.052738 -3.242674 5e-06 -18.78727 -0.0 -0.42971 -8.456039 2.555504 0.0 0.0 -0.0 -15.923531 -20.094481 -5.473588 30.41921 -7.190828 1.735925 5e-06 -8.162925 2e-06 -1.861901 -22.861467 -6.167943 0.0 -3e-06 -1e-06 121.181763 -20.03734 6.999904 107.86747 -2.996547 0.471238 -76.806915 23.70644 -15.708491 -30.281042 1.933412 1.858235 -0.999999 -0.0 -0.0 -64.543396 -8.88292 -3.154258 111.737633 -0.563109 0.319851 -73.288734 10.285035 -6.863914 -37.93494 1.07895 1.256872 -1.000002 -0.0 -1e-06 
0.0 0.0 0.0 0.0 -0.0 0.0 -3.133736 49.438446 5.068707 97.288132 -61.932556 84.355309 9.1514 0.232244 0.281675 -5.648221 -0.698702 0.625672 18.683046 -0.32132 -0.731991 20.909954 1.000966 2.244312 -2.711262 -0.733397 0.683525 -24.790056 -2.262567 0.068074 6e-06 -0.0 0.0 -0.178641 0.059458 -0.006997 0.15537 0.132963 0.140521 0.142825 -0.009711 -0.153009 -61.092896 -72.133461 72.723618 85.464348 5.053787 -16.70274 30.849926 -1.599068 -0.153615 -34.083664 71.239365 -31.388893 17.636639 -26.322739 52.41119 -19.466658 -14.395597 29.410381 -2e-06 -8.774821 -1e-06 15.259674 -18.533447 6.796096 -0.609776 -1.795654 -3.889328 -4.80709 -11.046813 -2.93785 3e-06 -20.976023 2e-06 -5.019973 -25.03356 -4.031879 6e-06 -2e-06 -1e-06 -10.634535 -5.686972 -3.565588 10.573272 -17.922956 -3.1139 2e-06 -13.821214 3e-06 -0.501781 -31.181511 -4.027013 -10.855158 -58.886169 7.172824 -13.982716 -7.150199 -2.875043 13.772727 -8.401492 -3.218239 0.34773 -34.211559 0.771659 -0.963031 -17.733376 2.621017 -0.0 -1e-06 2e-06 -17.346422 -20.095221 -4.201779 21.757557 -1.638376 3.866427 2e-06 -6.338825 1e-06 -1.697589 -22.591751 -6.194007 -0.0 -4e-06 -3e-06 146.406677 -77.009552 41.891418 71.409569 10.872416 -40.968842 35.814007 -2.683866 -0.970457 -24.865614 56.439079 -10.066532 22.182112 -20.375887 49.933304 -16.701809 -16.74353 28.476524 -0.0 -12.690603 -1e-06 16.99416 -17.69873 2.232167 -0.10592 -1.513855 -4.275879 -5.039042 -5.612871 -2.953556 5e-06 -11.020523 1e-06 -6.111301 -15.895332 -3.840469 -2e-06 -0.0 -1e-06 -10.283368 -5.680286 -4.341837 11.028292 -11.302405 -2.372633 -1.384272 -14.238579 -6.320121 -0.625441 -26.924191 -3.827596 -3.969103 -49.957874 -3.71911 -13.708525 -7.363474 -3.720936 18.141146 -14.052738 -3.242677 2e-06 -18.78727 -1e-06 -0.429712 -8.456039 2.555501 1e-06 0.0 -1e-06 -15.923538 -20.094481 -5.473579 30.41921 -7.190824 1.735925 2e-06 -8.162927 3e-06 -1.861905 -22.861467 -6.167943 -0.0 -2e-06 -0.0 119.308037 -19.973322 6.792836 112.089775 -2.753644 0.38194 -78.701157 23.023428 -15.425984 -28.855619 1.944077 1.891675 -1.0 0.0 -0.0 -63.256485 -8.695691 -3.072277 110.536674 -0.585585 0.369357 -73.117828 10.179055 -6.492064 -38.09203 1.062107 1.265138 -1.000001 0.0 1e-06 
0.0 0.0 0.0 0.0 -0.0 0.0 -3.33598 49.629463 5.763391 98.098694 -61.602406 83.425774 9.271158 0.060072 0.343534 -5.661292 -0.646981 0.734277 18.826509 -0.670486 -0.678055 21.245539 0.698651 2.098681 -2.714398 -0.7192 0.643235 -25.028376 -2.258713 0.018622 6e-06 -0.0 -0.0 -0.177172 0.068375 -0.013306 0.096326 0.127453 0.113424 0.099839 0.012638 -0.142787 -61.495773 -72.32975 73.632408 85.609886 4.417673 -16.942696 30.995188 -1.437574 -0.105689 -32.405888 71.833511 -29.610596 17.636625 -26.322733 52.411205 -19.466663 -14.395598 29.410389 -2e-06 -8.774819 -0.0 15.231363 -18.579714 6.835446 -0.609775 -1.795656 -3.889328 -4.807089 -11.04681 -2.937851 4e-06 -20.976019 -1e-06 -5.019969 -25.033556 -4.031886 6e-06 1e-06 -1e-06 -10.634534 -5.686972 -3.565589 10.573274 -17.922951 -3.113902 2e-06 -13.821211 0.0 -0.501775 -31.181505 -4.02702 -10.812342 -58.999542 7.226714 -13.982714 -7.1502 -2.875041 13.772727 -8.401491 -3.218243 0.347734 -34.211544 0.771652 -0.963028 -17.733366 2.621017 -0.0 -0.0 1e-06 -17.346422 -20.095217 -4.201783 21.757557 -1.638377 3.866428 2e-06 -6.338824 1e-06 -1.697588 -22.591743 -6.194009 0.0 -4e-06 -3e-06 147.187302 -76.761642 41.333469 72.026901 10.780029 -40.308933 35.187721 -2.662585 -0.937317 -26.257612 56.773319 -11.4415 22.182106 -20.375891 49.933319 -16.701817 -16.74353 28.476534 -4e-06 -12.690596 2e-06 17.081301 -17.697931 2.227498 -0.105918 -1.513855 -4.275882 -5.039042 -5.612869 -2.953557 6e-06 -11.02052 -3e-06 -6.111296 -15.895332 -3.840472 -0.0 -0.0 -0.0 -10.283371 -5.680288 -4.341838 11.028296 -11.302405 -2.372635 -1.384268 -14.238581 -6.320121 -0.625434 -26.924187 -3.827605 -3.980501 -50.060669 -3.667221 -13.708522 -7.363476 -3.720939 18.14115 -14.052736 -3.242677 5e-06 -18.787268 -0.0 -0.429709 -8.456037 2.555502 1e-06 -1e-06 -0.0 -15.923532 -20.094482 -5.473586 30.41921 -7.190826 1.735923 3e-06 -8.162925 2e-06 -1.8619 -22.861467 -6.167944 -0.0 -0.0 1e-06 116.759323 -19.651543 6.82359 116.409294 -2.354802 0.36385 -81.452866 22.84277 -15.164265 -28.786371 1.946695 1.871529 -0.999998 -1e-06 0.0 -62.191563 -8.635363 -2.868359 109.609955 -0.610905 0.397417 -73.56794 10.105713 -6.44993 -38.378643 1.052776 1.282211 -1.000001 -0.0 -1e-06 
